<?xml version="1.0" encoding="UTF-8" standalone="no"?>
<svg
   xmlns:dc="http://purl.org/dc/elements/1.1/"
   xmlns:cc="http://creativecommons.org/ns#"
   xmlns:rdf="http://www.w3.org/1999/02/22-rdf-syntax-ns#"
   xmlns:svg="http://www.w3.org/2000/svg"
   xmlns="http://www.w3.org/2000/svg"
   xmlns:xlink="http://www.w3.org/1999/xlink"
   xmlns:sodipodi="http://sodipodi.sourceforge.net/DTD/sodipodi-0.dtd"
   xmlns:inkscape="http://www.inkscape.org/namespaces/inkscape"
   width="125"
   height="125"
   viewBox="0 0 117.18749 117.1875"
   id="svg2"
   version="1.1"
   inkscape:version="1.0 (4035a4fb49, 2020-05-01)"
   sodipodi:docname="AboutManjaroGnome.svg">
  <defs
     id="defs4" />
  <sodipodi:namedview
     id="base"
     pagecolor="#ffffff"
     bordercolor="#666666"
     borderopacity="1.0"
     inkscape:pageopacity="0.0"
     inkscape:pageshadow="2"
     inkscape:zoom="5.6568544"
     inkscape:cx="32.32312"
     inkscape:cy="61.456148"
     inkscape:document-units="px"
     inkscape:current-layer="layer1"
     showgrid="false"
     inkscape:showpageshadow="false"
     fit-margin-top="0"
     fit-margin-left="0"
     fit-margin-right="0"
     fit-margin-bottom="0"
     inkscape:window-width="1914"
     inkscape:window-height="1047"
     inkscape:window-x="3"
     inkscape:window-y="3"
     inkscape:window-maximized="0"
     inkscape:pagecheckerboard="true"
     inkscape:document-rotation="0"
     showguides="true"
     inkscape:guide-bbox="true"
     units="px" />
  <metadata
     id="metadata7">
    <rdf:RDF>
      <cc:Work
         rdf:about="">
        <dc:format>image/svg+xml</dc:format>
        <dc:type
           rdf:resource="http://purl.org/dc/dcmitype/StillImage" />
        <dc:title></dc:title>
      </cc:Work>
    </rdf:RDF>
  </metadata>
  <g
     inkscape:label="Ebene 1"
     inkscape:groupmode="layer"
     id="layer1"
     transform="translate(222.41168,-236.90016)">
    <g
       id="g909"
       transform="matrix(0.58593741,0,0,0.58593741,-92.09235,98.091495)">
      <g
         style="fill:#16a085;fill-opacity:1"
         transform="matrix(1.2196132,0,0,1.0000088,-467.56616,-225.96506)"
         id="g905">
        <rect
           y="462.86115"
           x="317.00177"
           height="199.99825"
           width="47.994675"
           id="rect901"
           style="opacity:1;fill:#16a085;fill-opacity:1;fill-rule:evenodd;stroke:none;stroke-width:7.074;stroke-linecap:round;stroke-linejoin:miter;stroke-miterlimit:4;stroke-dasharray:21.222, 21.222;stroke-dashoffset:0;stroke-opacity:1" />
        <rect
           y="533.59174"
           x="259.00415"
           height="129.26767"
           width="47.994675"
           id="rect903"
           style="opacity:1;fill:#16a085;fill-opacity:1;fill-rule:evenodd;stroke:none;stroke-width:7.074;stroke-linecap:round;stroke-linejoin:miter;stroke-miterlimit:4;stroke-dasharray:21.222, 21.222;stroke-dashoffset:0;stroke-opacity:1" />
      </g>
      <path
         style="fill:#16a085;fill-opacity:1;fill-rule:evenodd;stroke:none;stroke-width:0.9375px;stroke-linecap:butt;stroke-linejoin:miter;stroke-opacity:1"
         d="m -222.41168,236.90016 h 129.26633 v 58.53494 h -70.93002 v 141.46508 h -58.33631 z"
         id="path907"
         inkscape:connector-curvature="0" />
    </g>
    <path
       d="m -167.86914,245.5 c -4.68426,0 -8.44505,1.99657 -11.26758,4.73242 -1.67064,-1.54981 -3.8485,-2.76584 -6.05273,-2.77344 -0.47997,-0.002 -0.94782,0.0317 -1.39649,0.0899 -3.05851,0.39698 -5.83606,2.37284 -7.41601,4.64844 -0.50698,-0.14549 -0.99128,-0.33885 -1.54493,-0.375 -1.50266,-0.0981 -2.91837,0.21593 -4.11328,0.70898 -2.739,1.13025 -4.85311,3.73508 -5.69336,6.25195 -1.48115,0.20938 -2.87288,0.68818 -3.90429,1.40039 a 6.3130683,6.3130683 0 0 0 -0.002,0.002 c -2.53494,1.75152 -4.12019,5.03601 -4.18554,7.70507 -0.0653,2.66907 0.7901,4.73599 1.82031,6.45313 0.92849,1.5476 2.08123,2.81522 3.55078,3.91406 -0.50005,1.10474 -1.00822,2.20613 -1.28711,3.45508 -1.69555,7.59092 1.55213,14.81363 6.36914,20.39844 4.81744,5.58529 11.74613,9.96679 19.85938,9.96679 9.37354,0 17.56256,-6.74116 19.41406,-16.55078 v -0.002 c 0.3347,-1.77374 0.0985,-4.02996 -0.92383,-5.81836 -1.02268,-1.78899 -2.56246,-2.89948 -3.90039,-3.52539 -0.18559,-0.0868 -0.33432,-0.0699 -0.51562,-0.14453 2.65077,-2.77244 5.08898,-6.95711 4.26953,-11.82617 -0.22376,-1.32956 -0.76754,-2.49326 -1.42188,-3.57422 0.20705,-0.16443 0.46055,-0.28454 0.66406,-0.45117 2.44846,-2.00477 4.56058,-4.4287 6.17969,-7.16211 1.61912,-2.73342 3.22024,-5.8129 2.16211,-10.19532 -0.52906,-2.1912 -2.18341,-4.52239 -4.25976,-5.75585 -2.07636,-1.23347 -4.25202,-1.57227 -6.4043,-1.57227 z"
       inkscape:href="#path846"
       id="path841"
       xlink:href="#path846"
       inkscape:original="M -167.86914 251.8125 C -179.09345 251.8125 -181.19711 267.79883 -174.88281 267.79883 C -168.56942 267.79883 -156.64438 251.8125 -167.86914 251.8125 z M -185.21094 253.77148 C -185.38918 253.77086 -185.57597 253.78299 -185.77344 253.80859 C -192.09003 254.62845 -189.86922 265.61305 -186.50586 265.81836 C -183.24892 266.01725 -179.6857 253.79051 -185.21094 253.77148 z M -195.95898 258.12109 C -196.34499 258.09589 -196.77607 258.17083 -197.25195 258.36719 C -202.32894 260.46222 -198.01996 269.11055 -195.17578 268.5293 C -192.59619 268.00337 -192.2276 258.36474 -195.95898 258.12109 z M -204.24609 264.89453 C -204.68751 264.87963 -205.16363 265.02795 -205.67188 265.37891 C -209.73602 268.18704 -204.30324 274.97005 -201.91211 273.91797 C -199.81987 272.99701 -201.15616 264.99852 -204.24609 264.89453 z M -181.03516 270.08594 C -189.74815 269.93854 -201.24107 274.30992 -203.20117 283.08789 C -205.32404 292.58717 -194.4657 305.76562 -183.13281 305.76562 C -177.55761 305.76562 -171.12497 300.73273 -169.92188 294.35547 C -169.00302 289.49245 -180.73407 291.44037 -180.3125 294.6582 C -179.80745 298.51522 -183.14247 300.42203 -186.4082 297.93555 C -196.80444 290.02032 -169.19375 286.07151 -171.01367 275.25781 C -171.58014 271.89182 -175.80736 270.17439 -181.03516 270.08594 z "
       inkscape:radius="6.3124371"
       sodipodi:type="inkscape:offset"
       style="fill:#ffffff;fill-opacity:1;fill-rule:nonzero;stroke:none;stroke-width:0.456236;stroke-miterlimit:4" />
    <path
       id="path846"
       style="fill:#000000;fill-opacity:1;fill-rule:nonzero;stroke:none;stroke-width:0.456236;stroke-miterlimit:4"
       d="m -167.86821,251.81221 c -11.22431,0 -13.32908,15.98694 -7.01478,15.98694 6.31339,0 18.23954,-15.98694 7.01478,-15.98694 z m -17.34192,1.95923 c -0.17824,-6.2e-4 -0.3665,0.011 -0.56397,0.0366 -6.31659,0.81986 -4.09578,11.80457 -0.73242,12.00988 3.25694,0.19889 6.82163,-12.02747 1.29639,-12.0465 z m -10.74829,4.35058 c -0.38601,-0.0252 -0.81685,0.049 -1.29273,0.24536 -5.07699,2.09503 -0.76959,10.74361 2.07459,10.16236 2.57959,-0.52593 2.94952,-10.16407 -0.78186,-10.40772 z m -8.28736,6.77307 c -0.44142,-0.0149 -0.91814,0.13244 -1.42639,0.4834 -4.06414,2.80813 1.36803,9.59212 3.75916,8.54004 2.09224,-0.92096 0.75716,-8.91945 -2.33277,-9.02344 z m 23.21045,5.19104 c -8.71299,-0.1474 -20.20665,4.22435 -22.16675,13.00232 -2.12287,9.49928 8.7373,22.67761 20.07019,22.67761 5.5752,0 12.00614,-5.03387 13.20923,-11.41113 0.91886,-4.86302 -10.81097,-2.91387 -10.3894,0.30396 0.50505,3.85702 -2.82985,5.76223 -6.09558,3.27575 -10.39624,-7.91523 17.21359,-11.86391 15.39367,-22.67761 -0.56647,-3.36599 -4.79356,-5.08245 -10.02136,-5.1709 z" />
  </g>
</svg>
